# xmcd CD database file
#
# Track frame offsets:
#	187
#	21190
#	39130
#
# Disc length: 802 seconds
#
# Revision: 0
# Processed by: cddbd v1.5PL3 Copyright (c) Steve Scherf et al.
# Submitted via: CDex 1.50beta9
#
DISCID=16032003
DTITLE=藤川賢一 - 大切な君の胸へ…
DYEAR=1994
DGENRE=J-POP
TTITLE0=大切な君の胸へ…
TTITLE1=Ｍｏｏｎｌｉｇｈｔ　Ａ．Ｍ．
TTITLE2=大切な君の胸へ…　カラオケ
EXTD=YEAR: 1994
EXTT0=
EXTT1=
EXTT2=
PLAYORDER=
